# xmcd
# Copyright (C) 1995-1998 Ti Kan
#
# Track frame offsets:
#       150
#       19315
#       32900
#       48987
#       75670
#       91787
#       140427
#       177802
#       209482
#
# Disc length: 3100 seconds
#
# Revision: 0
# Processed by: cddbd v1.5.2PL0 Copyright (c) Steve Scherf et al.
# Submitted via: CD-Import v1.0
#
DISCID=710c1a09
DTITLE=Jane's Addiction - Rizual De Lo Habitual
DYEAR=1990
DGENRE=
TTITLE0=Stop!
TTITLE1=No One's Leaving
TTITLE2=Ain't No Right
TTITLE3=Obvious
TTITLE4=Been Caught Stealing
TTITLE5=Three Days
TTITLE6=Then She Did
TTITLE7=Of Course
TTITLE8=Classic Girl
EXTD=
EXTT0=
EXTT1=
EXTT2=
EXTT3=
EXTT4=
EXTT5=
EXTT6=
EXTT7=
EXTT8=
PLAYORDER=
